# WaveFront *.obj file (generated by Autodesk ATF)

mtllib puente.mtl

g puente

v 15.000000 -7.000000 13.000000
v 15.000000 -9.000000 11.000000
v 18.000000 -9.000000 11.000000
v 18.000000 -7.000000 13.000000
v 15.000000 -9.000000 0.000000
v 18.000000 -9.000000 0.000000
v 18.000000 -6.000000 0.000000
v 15.000000 -6.000000 0.000000
v 15.000000 -6.000000 10.000000
v 18.000000 -6.000000 10.000000
v 15.000000 9.000000 11.000000
v 15.000000 7.000000 13.000000
v 18.000000 7.000000 13.000000
v 18.000000 9.000000 11.000000
v 18.000000 6.000000 10.000000
v 18.000000 6.000000 0.000000
v 18.000000 9.000000 0.000000
v 15.000000 6.000000 10.000000
v 15.000000 9.000000 0.000000
v 15.000000 6.000000 0.000000
vt 0.225000 0.141421 0.000000
vt -0.075000 0.141421 0.000000
vt 0.225000 -0.141421 0.000000
vt -0.075000 -0.141421 0.000000
vt -0.000000 1.100000 0.000000
vt -0.300000 1.100000 0.000000
vt -0.000000 0.000000 0.000000
vt -0.300000 0.000000 0.000000
vt -0.300000 0.000000 0.000000
vt -0.000000 0.000000 0.000000
vt -0.300000 1.000000 0.000000
vt -0.000000 1.000000 0.000000
vt -0.150000 -0.150000 0.000000
vt 0.150000 -0.150000 0.000000
vt -0.150000 0.150000 0.000000
vt 0.150000 0.150000 0.000000
vt -0.225000 -0.141421 0.000000
vt 0.075000 -0.141421 0.000000
vt -0.225000 0.141421 0.000000
vt 0.075000 0.141421 0.000000
vt 0.300000 0.000000 0.000000
vt 0.300000 1.100000 0.000000
vt 0.000000 1.000000 0.000000
vt 0.100000 1.300000 0.000000
vt -1.300000 1.300000 0.000000
vt -1.200000 1.000000 0.000000
vt -1.500000 1.100000 0.000000
vt -1.500000 0.000000 0.000000
vt -1.200000 0.000000 0.000000
vt 0.000000 0.000000 0.000000
vt 0.150000 0.250000 0.000000
vt -0.150000 0.250000 0.000000
vt 0.150000 -1.150000 0.000000
vt -0.150000 -1.150000 0.000000
vt -0.150000 -0.150000 0.000000
vt 0.150000 -0.150000 0.000000
vt -0.150000 1.050000 0.000000
vt 0.150000 1.050000 0.000000
vt -0.000000 1.100000 0.000000
vt 0.300000 1.000000 0.000000
vt 0.200000 1.300000 0.000000
vt 1.500000 1.000000 0.000000
vt 1.600000 1.300000 0.000000
vt 1.800000 1.100000 0.000000
vt 1.800000 0.000000 0.000000
vt 1.500000 0.000000 0.000000
vt -0.000000 0.000000 0.000000
vt 0.300000 0.000000 0.000000
vt 0.300000 1.100000 0.000000
vt -0.000000 1.100000 0.000000
vt 0.300000 0.000000 0.000000
vt -0.000000 0.000000 0.000000
vt 0.000000 0.000000 0.000000
vt 0.300000 0.000000 0.000000
vt 0.000000 1.000000 0.000000
vt 0.300000 1.000000 0.000000
vt -0.150000 -0.150000 0.000000
vt 0.150000 -0.150000 0.000000
vt -0.150000 0.150000 0.000000
vt 0.150000 0.150000 0.000000
vn 0.000000 -0.070711 0.070711
vn 0.000000 -0.070711 0.070711
vn 0.000000 -0.070711 0.070711
vn 0.000000 -0.070711 0.070711
vn 0.000000 -0.100000 0.000000
vn 0.000000 -0.100000 0.000000
vn 0.000000 -0.100000 0.000000
vn 0.000000 -0.100000 0.000000
vn 0.000000 0.100000 0.000000
vn 0.000000 0.100000 0.000000
vn 0.000000 0.100000 0.000000
vn 0.000000 0.100000 0.000000
vn 0.000000 0.000000 -0.100000
vn 0.000000 0.000000 -0.100000
vn 0.000000 0.000000 -0.100000
vn 0.000000 0.000000 -0.100000
vn 0.000000 0.070711 0.070711
vn 0.000000 0.070711 0.070711
vn 0.000000 0.070711 0.070711
vn 0.000000 0.070711 0.070711
vn 0.100000 0.000000 0.000000
vn 0.100000 0.000000 0.000000
vn 0.100000 0.000000 0.000000
vn 0.100000 0.000000 0.000000
vn 0.100000 0.000000 0.000000
vn 0.100000 0.000000 0.000000
vn 0.100000 0.000000 0.000000
vn 0.100000 0.000000 0.000000
vn 0.100000 0.000000 0.000000
vn 0.100000 0.000000 0.000000
vn 0.000000 0.000000 0.100000
vn 0.000000 0.000000 0.100000
vn 0.000000 0.000000 0.100000
vn 0.000000 0.000000 0.100000
vn 0.000000 0.000000 -0.100000
vn 0.000000 0.000000 -0.100000
vn 0.000000 0.000000 -0.100000
vn 0.000000 0.000000 -0.100000
vn -0.100000 0.000000 0.000000
vn -0.100000 0.000000 0.000000
vn -0.100000 0.000000 0.000000
vn -0.100000 0.000000 0.000000
vn -0.100000 0.000000 0.000000
vn -0.100000 0.000000 0.000000
vn -0.100000 0.000000 0.000000
vn -0.100000 0.000000 0.000000
vn -0.100000 0.000000 0.000000
vn -0.100000 0.000000 0.000000
vn 0.000000 0.100000 0.000000
vn 0.000000 0.100000 0.000000
vn 0.000000 0.100000 0.000000
vn 0.000000 0.100000 0.000000
vn 0.000000 -0.100000 0.000000
vn 0.000000 -0.100000 0.000000
vn 0.000000 -0.100000 0.000000
vn 0.000000 -0.100000 0.000000
vn -0.000000 0.000000 -0.100000
vn -0.000000 0.000000 -0.100000
vn -0.000000 0.000000 -0.100000
vn -0.000000 0.000000 -0.100000
usemtl Acero_-_Satinado
f 2/1/1 3/2/2 1/3/3
f 1/3/3 3/2/2 4/4/4
f 3/5/5 2/6/6 6/7/7
f 6/7/7 2/6/6 5/8/8
f 7/9/9 8/10/10 10/11/11
f 10/11/11 8/10/10 9/12/12
f 8/13/13 7/14/14 5/15/15
f 5/15/15 7/14/14 6/16/16
f 12/17/17 13/18/18 11/19/19
f 11/19/19 13/18/18 14/20/20
f 17/21/21 14/22/22 15/23/23
f 15/23/23 14/22/22 13/24/24
f 15/23/23 13/24/24 4/25/25
f 15/23/23 4/25/25 10/26/26
f 10/26/26 4/25/25 3/27/27
f 10/26/26 3/27/27 6/28/28
f 6/28/28 7/29/29 10/26/26
f 15/23/23 16/30/30 17/21/21
f 13/31/31 12/32/32 4/33/33
f 4/33/33 12/32/32 1/34/34
f 18/35/35 15/36/36 9/37/37
f 9/37/37 15/36/36 10/38/38
f 11/39/39 18/40/40 12/41/41
f 12/41/41 18/40/40 9/42/42
f 12/41/41 9/42/42 1/43/43
f 1/43/43 9/42/42 2/44/44
f 2/44/44 9/42/42 5/45/45
f 5/45/45 9/42/42 8/46/46
f 11/39/39 19/47/47 18/40/40
f 18/40/40 19/47/47 20/48/48
f 11/49/49 14/50/50 19/51/51
f 19/51/51 14/50/50 17/52/52
f 20/53/53 16/54/54 18/55/55
f 18/55/55 16/54/54 15/56/56
f 16/57/57 20/58/58 17/59/59
f 17/59/59 20/58/58 19/60/60
# 20 vertices
# 60 texture params
# 60 normals
# 36 facets

# 1 groups
