<?xml version="1.0" encoding="UTF-8" standalone="no"?>
<!-- Created with Inkscape (http://www.inkscape.org/) -->

<svg
   width="1920"
   height="1080"
   viewBox="0 0 1920 1080"
   version="1.1"
   id="svg1"
   inkscape:version="1.3.2 (091e20e, 2023-11-25, custom)"
   sodipodi:docname="fondo.svg"
   xmlns:inkscape="http://www.inkscape.org/namespaces/inkscape"
   xmlns:sodipodi="http://sodipodi.sourceforge.net/DTD/sodipodi-0.dtd"
   xmlns="http://www.w3.org/2000/svg"
   xmlns:svg="http://www.w3.org/2000/svg">
  <sodipodi:namedview
     id="namedview1"
     pagecolor="#505050"
     bordercolor="#eeeeee"
     borderopacity="1"
     inkscape:showpageshadow="0"
     inkscape:pageopacity="0"
     inkscape:pagecheckerboard="0"
     inkscape:deskcolor="#505050"
     inkscape:document-units="px"
     inkscape:zoom="0.35944595"
     inkscape:cx="2142.1858"
     inkscape:cy="699.68796"
     inkscape:window-width="2560"
     inkscape:window-height="1334"
     inkscape:window-x="-11"
     inkscape:window-y="-11"
     inkscape:window-maximized="1"
     inkscape:current-layer="layer1" />
  <defs
     id="defs1">
    <clipPath
       clipPathUnits="userSpaceOnUse"
       id="clipPath5">
      <rect
         style="fill:none;fill-opacity:1;stroke:#c63131;stroke-opacity:1"
         id="rect6"
         width="1941.8776"
         height="1096.1315"
         x="-2.7820594"
         y="-5.5641189"
         ry="0.60000002" />
    </clipPath>
    <clipPath
       clipPathUnits="userSpaceOnUse"
       id="clipPath6">
      <rect
         style="fill:none;fill-opacity:1;stroke:#c63131;stroke-opacity:1"
         id="rect7"
         width="1941.8776"
         height="1096.1315"
         x="-2.7820594"
         y="-5.5641189"
         ry="0.60000002" />
    </clipPath>
    <clipPath
       clipPathUnits="userSpaceOnUse"
       id="clipPath7">
      <rect
         style="fill:none;fill-opacity:1;stroke:#c63131;stroke-opacity:1"
         id="rect8"
         width="1941.8776"
         height="1096.1315"
         x="-2.7820594"
         y="-5.5641189"
         ry="0.60000002" />
    </clipPath>
  </defs>
  <g
     inkscape:label="Capa 1"
     inkscape:groupmode="layer"
     id="layer1">
    <path
       style="fill:#8ca100;fill-opacity:1"
       d="m 2080.9805,183.61592 19.4744,670.47634 -2464.90469,55.64118 52.85913,-740.02781 z"
       id="path3"
       clip-path="url(#clipPath7)" />
    <path
       style="fill:#00a160;fill-opacity:1"
       d="M -222.56476,659.34809 C -79.514017,536.90316 140.04691,789.38263 328.28301,784.54077 516.11005,779.70943 574.7189,634.4122 762.28429,645.4378 c 174.32739,10.24743 365.45151,136.40257 539.71961,125.19267 137.6295,-8.8531 273.835,-145.74427 411.7447,-144.66709 159.6723,1.24716 341.8898,101.23476 411.7448,244.82123 56.8625,116.88045 -50.077,386.70629 -50.077,386.70629 0,0 -1698.63015,556.7019 -2253.46821,50.077 -159.93792,-146.04 -209.05093,-507.38279 -44.51295,-648.21981 z"
       id="path1"
       sodipodi:nodetypes="sssssscss"
       clip-path="url(#clipPath6)" />
    <path
       style="fill:#005aa1;fill-opacity:1"
       d="m -186.39798,233.693 c 0,0 359.51171,110.29371 545.28365,116.84649 198.43414,6.99942 391.24012,-82.81122 589.79661,-83.46178 166.56162,-0.54573 328.64472,66.30737 495.20662,66.76943 195.4267,0.54213 581.4504,-75.11561 581.4504,-75.11561 l -8.3462,-411.7448 -2214.51932,36.16677 z"
       id="path2"
       clip-path="url(#clipPath5)"
       sodipodi:nodetypes="cssscccc" />
  </g>
</svg>
