<?xml version="1.0" encoding="UTF-8" standalone="no"?>
<svg
   height="128"
   width="128"
   version="1.1"
   id="svg7"
   sodipodi:docname="fwd.svg"
   inkscape:version="1.3.2 (091e20e, 2023-11-25, custom)"
   xmlns:inkscape="http://www.inkscape.org/namespaces/inkscape"
   xmlns:sodipodi="http://sodipodi.sourceforge.net/DTD/sodipodi-0.dtd"
   xmlns="http://www.w3.org/2000/svg"
   xmlns:svg="http://www.w3.org/2000/svg">
  <defs
     id="defs7" />
  <sodipodi:namedview
     id="namedview7"
     pagecolor="#ffffff"
     bordercolor="#000000"
     borderopacity="0.25"
     inkscape:showpageshadow="2"
     inkscape:pageopacity="0.0"
     inkscape:pagecheckerboard="0"
     inkscape:deskcolor="#d1d1d1"
     inkscape:zoom="8.5859375"
     inkscape:cx="63.941765"
     inkscape:cy="54.682439"
     inkscape:window-width="2560"
     inkscape:window-height="1334"
     inkscape:window-x="-11"
     inkscape:window-y="-11"
     inkscape:window-maximized="1"
     inkscape:current-layer="a7" />
  <a
     id="a7">
    <rect
       x="2"
       y="2"
       width="124"
       height="124"
       rx="14"
       fill="#363d52"
       stroke="#212532"
       stroke-width="4"
       id="rect1" />
    <path
       d="m 94.717946,61.511986 q 0,13.027055 -3.334306,22.797346 -3.334305,9.692749 -9.770291,16.128738 -6.358443,6.35844 -15.663482,9.53766 -9.305039,3.17922 -22.17701,3.17922 H 22.526352 q -1.783466,0 -3.411848,-1.16313 -1.55084,-1.24067 -1.55084,-4.26481 V 18.243555 q 0,-3.024138 1.55084,-4.187268 1.628382,-1.240672 3.411848,-1.240672 h 22.719803 q 13.027055,0 22.021926,3.411848 8.994871,3.334306 15.043146,9.692749 6.125818,6.280901 9.227497,15.275772 3.179222,8.994871 3.179222,20.316002 z m -14.0351,0.542794 q 0,-8.141909 -2.016092,-15.120688 Q 76.650662,39.87777 72.30831,34.759999 68.043501,29.642228 61.452432,26.773174 54.861362,23.90412 44.470735,23.90412 H 30.900887 v 78.08479 h 13.724932 q 9.615207,0 16.206277,-2.403806 6.591069,-2.403801 11.010962,-7.366489 4.419894,-4.962687 6.59107,-12.406719 2.248718,-7.521573 2.248718,-17.757116 z"
       id="text2"
       style="font-size:158.806px;font-family:Calibri;-inkscape-font-specification:Calibri;stroke-width:1.65423"
       transform="scale(1.0785147,0.92720109)"
       aria-label="D" />
    <path
       d="m 100.45664,69.335343 q 0,13.027055 -3.334304,22.797346 -3.334306,9.692751 -9.770291,16.128731 -6.358444,6.35845 -15.663483,9.53767 -9.305039,3.17922 -22.17701,3.17922 H 28.265047 q -1.783466,0 -3.411848,-1.16313 -1.55084,-1.24067 -1.55084,-4.26481 V 26.066911 q 0,-3.024137 1.55084,-4.187267 1.628382,-1.240672 3.411848,-1.240672 H 50.98485 q 13.027055,0 22.021926,3.411848 8.994871,3.334305 15.043147,9.692749 6.125817,6.280901 9.227497,15.275772 3.17922,8.994871 3.17922,20.316002 z m -14.035099,0.542794 q 0,-8.141909 -2.016092,-15.120689 Q 82.389357,47.701127 78.047006,42.583356 73.782196,37.465584 67.191127,34.59653 60.600057,31.727477 50.20943,31.727477 H 36.639582 v 78.084783 h 13.724932 q 9.615207,0 16.206277,-2.4038 6.591069,-2.4038 11.010963,-7.36649 4.419893,-4.962686 6.591069,-12.406717 2.248718,-7.521573 2.248718,-17.757116 z"
       id="text1"
       style="font-size:158.806px;font-family:Calibri;-inkscape-font-specification:Calibri;fill:#6052ee;stroke-width:1.65423"
       transform="scale(1.0785147,0.92720109)"
       aria-label="D" />
  </a>
</svg>
