<?xml version="1.0" encoding="UTF-8" standalone="no"?>
<svg
   height="128"
   width="128"
   version="1.1"
   id="svg7"
   sodipodi:docname="rear.svg"
   inkscape:version="1.3.2 (091e20e, 2023-11-25, custom)"
   xmlns:inkscape="http://www.inkscape.org/namespaces/inkscape"
   xmlns:sodipodi="http://sodipodi.sourceforge.net/DTD/sodipodi-0.dtd"
   xmlns="http://www.w3.org/2000/svg"
   xmlns:svg="http://www.w3.org/2000/svg">
  <defs
     id="defs7" />
  <sodipodi:namedview
     id="namedview7"
     pagecolor="#ffffff"
     bordercolor="#000000"
     borderopacity="0.25"
     inkscape:showpageshadow="2"
     inkscape:pageopacity="0.0"
     inkscape:pagecheckerboard="0"
     inkscape:deskcolor="#d1d1d1"
     inkscape:zoom="8.5859375"
     inkscape:cx="63.941765"
     inkscape:cy="60.855323"
     inkscape:window-width="2560"
     inkscape:window-height="1334"
     inkscape:window-x="-11"
     inkscape:window-y="-11"
     inkscape:window-maximized="1"
     inkscape:current-layer="svg7" />
  <a
     id="a7">
    <rect
       x="2"
       y="2"
       width="124"
       height="124"
       rx="14"
       fill="#363d52"
       stroke="#212532"
       stroke-width="4"
       id="rect1" />
  </a>
  <path
     d="m 84.482403,111.13886 q 0,0.62034 -0.232626,1.08559 -0.232626,0.46525 -1.008046,0.77542 -0.77542,0.31017 -2.171175,0.46525 -1.395756,0.15508 -3.722016,0.15508 -2.016092,0 -3.334306,-0.15508 -1.240672,-0.15508 -2.016092,-0.46525 -0.775419,-0.38771 -1.240671,-1.00805 -0.38771,-0.62033 -0.697878,-1.55084 L 60.832096,86.790676 q -1.628382,-4.032184 -3.411848,-7.36649 -1.705924,-3.411847 -4.109726,-5.815649 -2.403801,-2.481344 -5.660565,-3.799558 -3.256764,-1.395755 -7.831741,-1.395755 h -8.917329 v 42.725636 q 0,0.62034 -0.38771,1.08559 -0.310168,0.46525 -1.085588,0.77542 -0.697878,0.23262 -2.016092,0.38771 -1.240672,0.23262 -3.179222,0.23262 -1.938549,0 -3.256763,-0.23262 -1.240672,-0.15509 -2.016092,-0.38771 -0.77542,-0.31017 -1.085588,-0.77542 -0.310168,-0.46525 -0.310168,-1.08559 V 18.243555 q 0,-3.024138 1.55084,-4.187268 1.628382,-1.240672 3.411848,-1.240672 h 21.324047 q 3.799558,0 6.280902,0.232626 2.558885,0.155084 4.574977,0.38771 5.81565,1.008046 10.235543,3.179222 4.497436,2.171176 7.521573,5.505481 3.024138,3.334306 4.497436,7.676658 1.55084,4.264809 1.55084,9.460123 0,5.040229 -1.395756,9.072413 -1.318214,3.954641 -3.8771,7.056321 -2.558885,3.024138 -6.125817,5.272855 -3.566932,2.248718 -7.986825,3.799558 2.481344,1.085588 4.497435,2.791512 2.016092,1.628382 3.722016,3.954641 1.783466,2.32626 3.334306,5.350398 1.550839,3.024137 3.101679,6.823695 l 8.994871,22.099472 q 1.085588,2.79151 1.395756,3.95464 0.310168,1.08559 0.310168,1.70592 z M 64.399027,40.65319 q 0,-5.893191 -2.636428,-9.925375 -2.636427,-4.109725 -8.839787,-5.893191 -1.938549,-0.542794 -4.419893,-0.77542 -2.403802,-0.232626 -6.358443,-0.232626 H 30.900887 v 33.808309 h 13.027054 q 5.272856,0 9.072413,-1.240672 3.8771,-1.318214 6.435986,-3.566932 2.558885,-2.32626 3.722015,-5.427939 1.240672,-3.10168 1.240672,-6.746154 z"
     id="text7-2"
     style="font-size:158.806px;font-family:Calibri;-inkscape-font-specification:Calibri;stroke-width:1.65423"
     transform="scale(1.0785147,0.92720109)"
     aria-label="R" />
  <path
     d="m 90.221098,118.96222 q 0,0.62033 -0.232626,1.08559 -0.232626,0.46525 -1.008046,0.77542 -0.775419,0.31016 -2.171175,0.46525 -1.395756,0.15508 -3.722016,0.15508 -2.016092,0 -3.334306,-0.15508 -1.240671,-0.15509 -2.016091,-0.46525 -0.77542,-0.38771 -1.240672,-1.00805 -0.38771,-0.62034 -0.697878,-1.55084 L 66.570791,94.614032 Q 64.942409,90.581849 63.158943,87.247543 61.453019,83.835695 59.049218,81.431894 56.645416,78.95055 53.388652,77.632336 50.131888,76.23658 45.556911,76.23658 h -8.917329 v 42.72564 q 0,0.62033 -0.38771,1.08559 -0.310168,0.46525 -1.085588,0.77542 -0.697878,0.23262 -2.016092,0.38771 -1.240672,0.23262 -3.179222,0.23262 -1.938549,0 -3.256763,-0.23262 -1.240672,-0.15509 -2.016092,-0.38771 -0.77542,-0.31017 -1.085588,-0.77542 -0.310168,-0.46526 -0.310168,-1.08559 V 26.066911 q 0,-3.024137 1.55084,-4.187267 1.628382,-1.240672 3.411848,-1.240672 h 21.324047 q 3.799558,0 6.280902,0.232626 2.558886,0.155084 4.574977,0.38771 5.81565,1.008046 10.235543,3.179222 4.497436,2.171175 7.521574,5.505481 3.024137,3.334306 4.497435,7.676657 1.55084,4.26481 1.55084,9.460123 0,5.04023 -1.395756,9.072413 -1.318214,3.954642 -3.8771,7.056322 -2.558885,3.024137 -6.125817,5.272855 -3.566932,2.248718 -7.986825,3.799558 2.481344,1.085588 4.497435,2.791511 2.016092,1.628382 3.722016,3.954642 1.783466,2.32626 3.334306,5.350397 1.55084,3.024138 3.101679,6.823696 l 8.994871,22.099465 q 1.085588,2.79151 1.395756,3.95464 0.310168,1.08559 0.310168,1.70593 z M 70.137722,48.476547 q 0,-5.893191 -2.636427,-9.925375 -2.636428,-4.109726 -8.839787,-5.893191 -1.93855,-0.542794 -4.419894,-0.77542 -2.403802,-0.232626 -6.358443,-0.232626 H 36.639582 v 33.808308 h 13.027054 q 5.272856,0 9.072414,-1.240672 3.877099,-1.318213 6.435985,-3.566931 2.558886,-2.32626 3.722015,-5.42794 1.240672,-3.101679 1.240672,-6.746153 z"
     id="text7-2-1"
     style="font-size:158.806px;font-family:Calibri;-inkscape-font-specification:Calibri;fill:#6052ee;stroke-width:1.65423"
     transform="scale(1.0785147,0.92720109)"
     aria-label="R" />
</svg>
