# WaveFront *.obj file (generated by Autodesk ATF)

mtllib coche.mtl

g coche

v -2.500000 2.500000 5.700000
v 3.500000 2.500000 5.700000
v 7.000000 2.500000 3.700000
v -6.162051 2.500000 3.700000
v 3.500000 -2.500000 5.700000
v 7.000000 -2.500000 3.700000
v -6.162051 -2.500000 3.700000
v -2.500000 -2.500000 5.700000
v -6.162051 3.000000 3.700000
v -8.500000 3.000000 3.700000
v -8.500000 3.500000 3.700000
v -6.162051 3.500000 3.700000
v -8.500000 -3.000000 3.700000
v -6.162051 -3.000000 3.700000
v -6.162051 -3.500000 3.700000
v -8.500000 -3.500000 3.700000
v -9.000000 3.500000 4.700000
v -6.750000 3.500000 4.378571
v -6.750000 -3.500000 4.378571
v -9.000000 -3.500000 4.700000
v 10.000000 3.000000 3.700000
v 12.000000 3.000000 3.200000
v 12.000000 3.000000 1.200000
v 9.500000 3.000000 0.700000
v -5.000000 3.000000 0.700000
v -8.500000 3.000000 1.200000
v 10.000000 -3.000000 3.700000
v 12.000000 -3.000000 3.200000
v 12.000000 -3.000000 1.200000
v 9.500000 -3.000000 0.700000
v -5.000000 -3.000000 0.700000
v -8.500000 -3.000000 1.200000
vt 0.100000 0.308103 0.000000
vt -0.100000 0.658103 0.000000
vt 0.100000 -0.291897 0.000000
vt -0.100000 -0.658103 0.000000
vt 0.403113 0.250000 0.000000
vt 0.000000 0.250000 0.000000
vt 0.403113 -0.250000 0.000000
vt 0.000000 -0.250000 0.000000
vt 0.417260 0.250000 0.000000
vt 0.000000 0.250000 0.000000
vt 0.417260 -0.250000 0.000000
vt -0.000000 -0.250000 0.000000
vt 0.600000 0.250000 0.000000
vt 0.000000 0.250000 0.000000
vt 0.600000 -0.250000 0.000000
vt -0.000000 -0.250000 0.000000
vt -0.100000 0.308103 0.000000
vt -0.100000 -0.291897 0.000000
vt 0.100000 0.658103 0.000000
vt 0.100000 -0.658103 0.000000
vt 0.233795 -0.300000 0.000000
vt 0.000000 -0.300000 0.000000
vt 0.233795 -0.350000 0.000000
vt 0.000000 -0.350000 0.000000
vt 0.000000 0.300000 0.000000
vt 0.233795 0.300000 0.000000
vt 0.000000 0.350000 0.000000
vt 0.233795 0.350000 0.000000
vt 0.050000 -0.141897 0.000000
vt 0.017857 0.083103 0.000000
vt -0.050000 -0.091897 0.000000
vt -0.050000 0.141897 0.000000
vt 0.089785 0.350000 0.000000
vt 0.000000 0.250000 0.000000
vt 0.089785 -0.350000 0.000000
vt 0.000000 -0.250000 0.000000
vt 0.000000 -0.300000 0.000000
vt 0.000000 0.350000 0.000000
vt 0.000000 0.300000 0.000000
vt 0.000000 -0.350000 0.000000
vt 0.111803 0.350000 0.000000
vt 0.000000 0.350000 0.000000
vt 0.111803 0.300000 0.000000
vt 0.000000 -0.350000 0.000000
vt 0.111803 -0.300000 0.000000
vt 0.111803 -0.350000 0.000000
vt 0.227284 0.350000 0.000000
vt 0.000000 0.350000 0.000000
vt 0.227284 -0.350000 0.000000
vt 0.000000 -0.350000 0.000000
vt -0.050000 -0.141897 0.000000
vt 0.050000 -0.091897 0.000000
vt -0.017857 0.083103 0.000000
vt 0.050000 0.141897 0.000000
vt 0.150000 0.825000 0.000000
vt 0.100000 1.025000 0.000000
vt 0.150000 -0.791205 0.000000
vt -0.100000 -1.025000 0.000000
vt 0.150000 -1.025000 0.000000
vt -0.150000 -0.675000 0.000000
vt -0.100000 1.025000 0.000000
vt -0.150000 0.775000 0.000000
vt 0.206155 0.300000 0.000000
vt 0.000000 0.300000 0.000000
vt 0.206155 -0.300000 0.000000
vt 0.000000 -0.300000 0.000000
vt 0.200000 0.300000 0.000000
vt 0.000000 0.300000 0.000000
vt 0.200000 -0.300000 0.000000
vt 0.000000 -0.300000 0.000000
vt 0.254951 0.300000 0.000000
vt 0.000000 0.300000 0.000000
vt 0.254951 -0.300000 0.000000
vt 0.000000 -0.300000 0.000000
vt 1.450000 0.300000 0.000000
vt 0.000000 0.300000 0.000000
vt 1.450000 -0.300000 0.000000
vt 0.000000 -0.300000 0.000000
vt 0.353553 0.300000 0.000000
vt 0.000000 0.300000 0.000000
vt 0.353553 -0.300000 0.000000
vt 0.000000 -0.300000 0.000000
vt 0.250000 0.300000 0.000000
vt 0.000000 0.300000 0.000000
vt 0.250000 -0.300000 0.000000
vt -0.000000 -0.300000 0.000000
vt 1.616205 0.250000 0.000000
vt 1.616205 0.300000 0.000000
vt 0.300000 0.250000 0.000000
vt 0.000000 0.300000 0.000000
vt -0.000000 -0.300000 0.000000
vt 0.300000 -0.250000 0.000000
vt 1.616205 -0.300000 0.000000
vt 1.616205 -0.250000 0.000000
vt -0.150000 0.825000 0.000000
vt -0.150000 -0.791205 0.000000
vt -0.100000 1.025000 0.000000
vt 0.100000 -1.025000 0.000000
vt 0.150000 -0.675000 0.000000
vt -0.150000 -1.025000 0.000000
vt 0.150000 0.775000 0.000000
vt 0.100000 1.025000 0.000000
vn 0.000000 0.100000 0.000000
vn 0.000000 0.100000 0.000000
vn 0.000000 0.100000 0.000000
vn 0.000000 0.100000 0.000000
vn 0.049614 0.000000 0.086824
vn 0.049614 0.000000 0.086824
vn 0.049614 0.000000 0.086824
vn 0.049614 0.000000 0.086824
vn -0.047932 0.000000 0.087764
vn -0.047932 0.000000 0.087764
vn -0.047932 0.000000 0.087764
vn -0.047932 0.000000 0.087764
vn 0.000000 0.000000 0.100000
vn 0.000000 0.000000 0.100000
vn 0.000000 0.000000 0.100000
vn 0.000000 0.000000 0.100000
vn 0.000000 -0.100000 0.000000
vn 0.000000 -0.100000 0.000000
vn 0.000000 -0.100000 0.000000
vn 0.000000 -0.100000 0.000000
vn 0.000000 0.000000 -0.100000
vn 0.000000 0.000000 -0.100000
vn 0.000000 0.000000 -0.100000
vn 0.000000 0.000000 -0.100000
vn 0.000000 0.000000 -0.100000
vn 0.000000 0.000000 -0.100000
vn 0.000000 0.000000 -0.100000
vn 0.000000 0.000000 -0.100000
vn 0.000000 0.100000 0.000000
vn 0.000000 0.100000 0.000000
vn 0.000000 0.100000 0.000000
vn 0.000000 0.100000 0.000000
vn 0.075577 0.000000 0.065484
vn 0.075577 0.000000 0.065484
vn 0.075577 0.000000 0.065484
vn 0.075577 0.000000 0.065484
vn 0.075577 0.000000 0.065484
vn 0.075577 0.000000 0.065484
vn 0.075577 0.000000 0.065484
vn 0.075577 0.000000 0.065484
vn -0.089443 0.000000 -0.044721
vn -0.089443 0.000000 -0.044721
vn -0.089443 0.000000 -0.044721
vn -0.089443 0.000000 -0.044721
vn -0.089443 0.000000 -0.044721
vn -0.089443 0.000000 -0.044721
vn 0.014142 0.000000 0.098995
vn 0.014142 0.000000 0.098995
vn 0.014142 0.000000 0.098995
vn 0.014142 0.000000 0.098995
vn 0.000000 -0.100000 0.000000
vn 0.000000 -0.100000 0.000000
vn 0.000000 -0.100000 0.000000
vn 0.000000 -0.100000 0.000000
vn 0.000000 0.100000 0.000000
vn 0.000000 0.100000 0.000000
vn 0.000000 0.100000 0.000000
vn 0.000000 0.100000 0.000000
vn 0.000000 0.100000 0.000000
vn 0.000000 0.100000 0.000000
vn 0.000000 0.100000 0.000000
vn 0.000000 0.100000 0.000000
vn 0.024254 0.000000 0.097014
vn 0.024254 0.000000 0.097014
vn 0.024254 0.000000 0.097014
vn 0.024254 0.000000 0.097014
vn 0.100000 0.000000 0.000000
vn 0.100000 0.000000 0.000000
vn 0.100000 0.000000 0.000000
vn 0.100000 0.000000 0.000000
vn 0.019612 0.000000 -0.098058
vn 0.019612 0.000000 -0.098058
vn 0.019612 0.000000 -0.098058
vn 0.019612 0.000000 -0.098058
vn 0.000000 0.000000 -0.100000
vn 0.000000 0.000000 -0.100000
vn 0.000000 0.000000 -0.100000
vn 0.000000 0.000000 -0.100000
vn -0.014142 0.000000 -0.098995
vn -0.014142 0.000000 -0.098995
vn -0.014142 0.000000 -0.098995
vn -0.014142 0.000000 -0.098995
vn -0.100000 0.000000 0.000000
vn -0.100000 0.000000 0.000000
vn -0.100000 0.000000 0.000000
vn -0.100000 0.000000 0.000000
vn 0.000000 0.000000 0.100000
vn 0.000000 0.000000 0.100000
vn 0.000000 0.000000 0.100000
vn 0.000000 0.000000 0.100000
vn 0.000000 0.000000 0.100000
vn 0.000000 0.000000 0.100000
vn 0.000000 0.000000 0.100000
vn 0.000000 0.000000 0.100000
vn 0.000000 -0.100000 0.000000
vn 0.000000 -0.100000 0.000000
vn 0.000000 -0.100000 0.000000
vn 0.000000 -0.100000 0.000000
vn 0.000000 -0.100000 0.000000
vn 0.000000 -0.100000 0.000000
vn 0.000000 -0.100000 0.000000
vn 0.000000 -0.100000 0.000000
usemtl ABS_(blanco)_(1)
f 2/1/1 3/2/2 1/3/3
f 1/3/3 3/2/2 4/4/4
f 5/5/5 6/6/6 2/7/7
f 2/7/7 6/6/6 3/8/8
f 7/9/9 8/10/10 4/11/11
f 4/11/11 8/10/10 1/12/12
usemtl Plástico_-_Brillante_translúcido_(rojo)
f 8/13/13 5/14/14 1/15/15
f 1/15/15 5/14/14 2/16/16
usemtl ABS_(blanco)_(1)
f 5/17/17 8/18/18 6/19/19
f 6/19/19 8/18/18 7/20/20
usemtl Plástico_-_Brillante_translúcido_(rojo)
f 9/21/21 10/22/22 12/23/23
f 12/23/23 10/22/22 11/24/24
f 13/25/25 14/26/26 16/27/27
f 16/27/27 14/26/26 15/28/28
f 17/29/29 18/30/30 11/31/31
f 11/31/31 18/30/30 12/32/32
f 19/33/33 7/34/34 18/35/35
f 18/35/35 7/34/34 4/36/36
f 18/35/35 4/36/36 9/37/37
f 15/38/38 14/39/39 19/33/33
f 19/33/33 14/39/39 7/34/34
f 9/37/37 12/40/40 18/35/35
f 16/41/41 20/42/42 13/43/43
f 13/43/43 20/42/42 17/44/44
f 13/43/43 17/44/44 10/45/45
f 10/45/45 17/44/44 11/46/46
f 20/47/47 19/48/48 17/49/49
f 17/49/49 19/48/48 18/50/50
f 20/51/51 16/52/52 19/53/53
f 19/53/53 16/52/52 15/54/54
f 21/55/55 22/56/56 9/57/57
f 9/57/57 22/56/56 26/58/58
f 9/57/57 26/58/58 10/59/59
f 26/58/58 22/56/56 25/60/60
f 25/60/60 22/56/56 23/61/61
f 25/60/60 23/61/61 24/62/62
f 27/63/63 28/64/64 21/65/65
f 21/65/65 28/64/64 22/66/66
f 28/67/67 29/68/68 22/69/69
f 22/69/69 29/68/68 23/70/70
f 29/71/71 30/72/72 23/73/73
f 23/73/73 30/72/72 24/74/74
f 30/75/75 31/76/76 24/77/77
f 24/77/77 31/76/76 25/78/78
f 31/79/79 32/80/80 25/81/81
f 25/81/81 32/80/80 26/82/82
f 32/83/83 13/84/84 26/85/85
f 26/85/85 13/84/84 10/86/86
f 7/87/87 14/88/88 6/89/89
f 6/89/89 14/88/88 27/90/90
f 6/89/89 27/90/90 21/91/91
f 6/89/89 21/91/91 3/92/92
f 3/92/92 21/91/91 9/93/93
f 3/92/92 9/93/93 4/94/94
f 27/95/95 14/96/96 28/97/97
f 28/97/97 14/96/96 32/98/98
f 28/97/97 32/98/98 31/99/99
f 14/96/96 13/100/100 32/98/98
f 30/101/101 29/102/102 31/99/99
f 31/99/99 29/102/102 28/97/97
# 32 vertices
# 102 texture params
# 102 normals
# 60 facets

# 1 groups
